<svg xmlns="http://www.w3.org/2000/svg" viewBox="0 0 241.92 447.9"><defs><style>.cls-1{fill:#fff;}.cls-2{fill:#e5e5e5;}</style></defs><title>Asset 3</title><g id="Layer_2" data-name="Layer 2"><g id="Layer_1-2" data-name="Layer 1"><path class="cls-1" d="M200.86.17c9.25,0,18.5-.27,27.75,0,7.12.19,13.34,6.78,13.28,14.71-.19,30-.08,60.07-.08,90.11,0,18.07-.3,36.16.1,54.22.28,12.82-9.39,23.6-20.1,25.43-.29,0-.55.32-1,.58,10.9,2.68,17.91,9,20.6,19.87a22.29,22.29,0,0,1,.39,5.45c0,48.29-.08,96.58.1,144.87A14.88,14.88,0,0,1,227,370.18c-8.72-.26-17.45-.12-26.18-.15q0-19.44,0-38.88c0-1,.38-2.1-.47-3,0-1,.06-1.91.06-2.87V209.41c0-.95.07-1.91.1-2.86,0-.07.14-.19.12-.21a3.31,3.31,0,0,0-.34-.3Q122,206,43.73,206c-2.16,0-2.32.79-2.32,2.54.05,18.68,0,37.36,0,56q0,31.8,0,63.62c-1.77.86-1.53,2.5-1.53,4q0,19,0,37.91-19.12.06-38.24.14c-1.19,0-1.84-.25-1.66-1.58a9.39,9.39,0,0,0,0-1.3Q.07,185.26,0,3.18C0,.45.75,0,3.28,0,15.5.16,27.73.12,40,.14Q40,19.58,40,39c0,1.24-.39,2.77,1.6,3,0,1-.11,1.91-.11,2.87q0,58.31-.07,116.6c0,2.6.7,3.09,3.17,3.09q76.36-.12,152.75,0c2.47,0,3.18-.5,3.18-3.09q-.15-58.17-.08-116.34c0-1-.08-2.09-.12-3.14,1-.83.53-2,.54-3Q200.88,19.61,200.86.17Z"/><path class="cls-2" d="M201.39,0q0,19.46,0,38.89c0,1,.41,2.11-.54,3H42.1c-2-.21-1.6-1.73-1.6-3q0-19.44,0-38.88L197.73,0Z"/><path class="cls-2" d="M39.93,370.18q0-19,0-37.91c0-1.51-.23-3.16,1.54-4H200.34c.85.88.46,2,.46,3q0,19.44,0,38.88c-1,0-1.92.09-2.88.09H44.1C42.71,370.22,41.32,370.2,39.93,370.18Z"/><path class="cls-1" d="M121.65,443.19c-2.46,3.81-5.45,5.12-9.25,4.59s-5.45-2.29-5.71-6a50.38,50.38,0,0,1,0-6,7,7,0,0,1,4.82-6.54,70,70,0,0,1,7.17-2.38c2.63-.7,2.75-2.54,2.44-4.66s-1.83-2.33-3.48-2.41c-3.58-.17-4.67.75-4.85,4.39-.06,1.2-.47,1.39-1.54,1.43-4.1.17-4.41-.12-4-4.2.39-3.9,3.55-6.48,8.53-6.82a17.9,17.9,0,0,1,6,.46c3.58,1,5.5,3.17,5.52,6.9,0,7.86-.08,15.72.05,23.58,0,2.27-1.2,2.08-2.63,2s-3.44.74-3-2A22.59,22.59,0,0,0,121.65,443.19Zm0-13.51a19.33,19.33,0,0,1-4.88,1.82c-4.49,1.27-4.92,3.86-4.37,8.28.26,2.11,1.94,3,4,3a5.37,5.37,0,0,0,5.28-5.31C121.68,435,121.63,432.55,121.63,429.68Z"/><path class="cls-1" d="M48.61,423.72c3.79,1,5,3.57,4.93,6.93s.05,6.63,0,9.94c-.08,3.87-1.87,6-5.67,6.6-4.86.72-9.76.15-14.64.3-1.2,0-1.13-.79-1.13-1.59q0-20.94,0-41.89c0-.85,0-1.54,1.19-1.51,4.27.07,8.57-.18,12.81.17s6.34,2.61,6.78,7a47.63,47.63,0,0,1,0,8.36A6.54,6.54,0,0,1,48.61,423.72ZM38.29,434.33v6.26c0,.79-.1,1.65,1.11,1.58,1.81-.1,3.61.18,5.43-.3A2.8,2.8,0,0,0,47.26,439c.07-3.22,0-6.43,0-9.64a2.48,2.48,0,0,0-2.13-2.6c-2.13-.25-4.55-.67-6.4.09-1.24.5-.28,3-.44,4.62C38.21,432.42,38.29,433.38,38.29,434.33Zm0-19.65v2.09c0,4.71,0,4.71,4.65,4.56,2.91-.09,4.2-1.38,4.29-4.38q.08-2.35,0-4.71c-.12-3.76-1.36-4.44-6.85-4.49-3.69,0-1.63,2.62-2.05,4.06A11,11,0,0,0,38.29,414.68Z"/><path class="cls-1" d="M76.61,424.92c0-6.81.06-13.62,0-20.43,0-1.66.47-2,2.05-2,4.26,0,4.26,0,4.26,4.21s.06,8.21,0,12.32c0,1.47.38,2,1.88,1.89,2.42-.16,5.61.76,7.08-.45s.4-4.58.47-7q.12-4.59,0-9.17c0-1.31.26-2,1.71-1.79a8.81,8.81,0,0,0,2.35,0c1.52-.19,1.9.45,1.89,1.91-.07,6.81,0,13.62,0,20.43s-.05,13.63,0,20.44c0,1.59-.25,2.32-2.11,2.27-3.81-.1-3.81,0-3.81-3.91,0-5.06-.07-10.13,0-15.19,0-1.61-.43-2.21-2-2.05-2.4.23-5.52-1-7,.5-1.15,1.18-.37,4.3-.38,6.55,0,4-.1,8,0,12.05,0,1.63-.44,2.06-2,2-4.25,0-4.25.05-4.25-4.27Z"/><path class="cls-1" d="M167.8,429c2.73-4.06,5.14-7.37,7.24-10.87,1.39-2.32,3-3.69,5.81-3.11a16.45,16.45,0,0,0,2.77,0c-2.42,3.78-4.61,7.37-7,10.84a3.74,3.74,0,0,0-.37,4.06c2.45,5.71,4.81,11.46,7.2,17.2-.32.16-.45.28-.59.28-5.49.16-5.49.16-7.67-4.78-1.3-2.93-2.58-5.87-4-9-2.07,2.22-4,4.26-3.47,7.51a16.35,16.35,0,0,1,0,2.62c0,3.75,0,3.64-3.7,3.75-1.79,0-2.14-.57-2.13-2.22.08-7.68,0-15.35,0-23,0-6,.08-12,0-18.05,0-1.83.43-2.37,2.29-2.3,3.54.13,3.55,0,3.55,3.6Z"/><path class="cls-1" d="M198.38,414.54c6.35,0,9.8,3,10,8.47.06,1.55-.28,2.2-2,2.07-1.91-.14-4,.58-3.69-2.8.17-1.89-1.75-2.7-3.53-2.73s-3.91-.2-4.82,2.16a3.57,3.57,0,0,0,1.33,4.56,32.16,32.16,0,0,0,6.23,3.27c5.73,2.55,7.19,5,6.74,11.16a6.81,6.81,0,0,1-5.15,6.48,16.92,16.92,0,0,1-9.54.07c-4-1.1-6.27-4.79-5.78-9.05.1-.92.4-1.22,1.26-1.18a16.37,16.37,0,0,0,2.62,0c1.49-.18,2.07.38,1.88,1.88-.26,2.14.62,3.7,2.82,3.91s4.52.66,5.88-1.72a5.13,5.13,0,0,0-1.63-6c-2.35-1.47-4.83-2.72-7.22-4.11-4.91-2.87-6.36-6.15-5-11.06C189.79,416.61,193.49,414.54,198.38,414.54Z"/><path class="cls-1" d="M134.05,431.06c0-2.44-.08-4.88,0-7.32.31-8.1,6.19-10.06,12.77-9,5.37.9,8.29,5.7,7.26,11.07-.06.31-.17.82-.37.88a10,10,0,0,1-4.64.12c-1.31-.24-.46-1.61-.67-2.45a9.08,9.08,0,0,1,0-1,3.83,3.83,0,0,0-4.15-3.45c-2.19.07-4,.85-4.2,3.35a94.24,94.24,0,0,0,0,15.67c.21,2.65,1.49,3.53,4.47,3.43a3.65,3.65,0,0,0,3.9-3.63c.11-1.09-.59-2.72.45-3.13,1.28-.51,2.92-.17,4.4-.16.87,0,.8.68.87,1.3.46,4.33-1.29,8.44-4.29,10-3.66,1.89-10.17,1.43-12.95-1a7.55,7.55,0,0,1-2.61-5.51c-.12-3,0-6.1,0-9.14Z"/><path class="cls-1" d="M64.84,424.5h1c3.69,0,3.64,0,3.41,3.69-.07,1.13-.41,1.5-1.53,1.46q-3-.11-6,0c-1.19.05-1.4-.48-1.46-1.54C60.11,424.5,60.07,424.5,64.84,424.5Z"/></g></g></svg>